# Blender3D v249 OBJ File: cityicon.blend
# www.blender3d.org
mtllib cityicon.mtl
v 0.585354 0.296448 -0.782814
v -1.182531 0.296448 -0.782814
v -0.544659 0.296448 -0.460295
v -0.052518 0.296448 -0.460295
v 0.511294 0.284503 -0.838717
v -1.108471 0.284503 -0.838717
v -0.524830 0.284503 -0.580463
v -0.072347 0.284503 -0.580463
vt 2.350000 -2.700000
vt 4.200000 0.500000
vt 3.240000 0.500000
vt -3.200000 0.500000
vt -1.350000 -2.700000
vt -2.240000 0.500000
vt -0.868000 -1.870000
vt 1.870000 -1.870000
vn -0.026215 0.994201 -0.104190
vn -0.064028 0.989868 -0.126652
vn -0.052400 0.992584 -0.109439
vn 0.064028 0.989868 -0.126652
vn 0.034944 0.993744 -0.105960
vn 0.052400 0.992584 -0.109439
vn 0.013581 0.995209 -0.096683
vn -0.020386 0.995209 -0.095553
usemtl Material.015_zigel.jpg
s 1
f 4/1/1 1/2/2 5/3/3
f 2/4/4 3/5/5 6/6/6
f 6/6/6 3/5/5 7/7/7
f 3/5/5 4/1/1 7/7/7
f 7/7/7 4/1/1 8/8/8
f 4/1/1 5/3/3 8/8/8
v 0.308010 0.387948 -0.810206
v 0.410841 0.387948 -0.652033
v 0.593263 0.387948 -0.700983
v 0.602996 0.387948 -0.889465
v 0.426586 0.387948 -0.956945
v 0.468339 0.387948 -0.801926
vt 0.484000 0.500000
vt 0.652000 0.500000
vt 0.536000 0.660000
vt 0.348000 0.599000
vt 0.348000 0.401000
vt 0.536000 0.340000
vn 0.000000 1.000000 0.000000
usemtl Material.014_yellowstn.png
s 1
f 14/9/9 9/10/9 10/11/9
f 14/9/9 10/11/9 11/12/9
f 14/9/9 11/12/9 12/13/9
f 14/9/9 12/13/9 13/14/9
f 13/14/9 9/10/9 14/9/9
v 0.585354 0.296448 -0.782814
v 0.143383 0.296448 -1.547305
v -0.740560 0.296448 -1.547305
v -1.182531 0.296448 -0.782814
v 0.040654 0.255835 -1.370516
v 0.379897 0.255835 -0.782814
v -0.637831 0.255835 -1.370516
v -0.977074 0.255835 -0.782814
vt 3.240000 0.500000
vt 4.200000 0.500000
vt 1.870000 2.870000
vt 2.350000 3.700000
vt -1.350000 3.700000
vt -0.868000 2.870000
vt -3.200000 0.500000
vt -2.240000 0.500000
vn -0.192694 0.974914 0.111240
vn -0.192938 0.974853 0.111454
vn -0.097079 0.980865 0.168706
vn -0.097171 0.980834 0.168828
vn 0.064730 0.980102 0.187506
vn 0.129337 0.980193 0.149754
vn 0.192938 0.974853 0.111454
vn 0.192694 0.974914 0.111240
usemtl Material.013_zigel.jpg
s 1
f 20/15/10 15/16/11 19/17/12
f 19/17/12 15/16/11 16/18/13
f 16/18/13 17/19/14 19/17/12
f 19/17/12 17/19/14 21/20/15
f 17/19/14 18/21/16 21/20/15
f 21/20/15 18/21/16 22/22/17
v -0.378773 0.118227 -0.788174
v -0.378373 0.118227 -1.289871
v -0.547916 0.118227 -0.788309
v -0.547517 0.118227 -1.290006
v -0.717060 0.118227 -0.788444
v -0.716660 0.118227 -1.290141
v -0.378773 0.357608 -0.788174
v -0.378373 0.357608 -1.289871
v -0.547916 0.520062 -0.788309
v -0.547517 0.520062 -1.290006
v -0.717060 0.357608 -0.788444
v -0.716660 0.357608 -1.290141
v -0.361832 -0.050614 -0.761882
v -0.361390 -0.050614 -1.316137
v -0.547937 -0.050614 -0.762030
v -0.547496 -0.050614 -1.316285
v -0.734043 -0.050614 -0.762178
v -0.733602 -0.050614 -1.316434
vt -0.964000 -0.178000
vt 1.960000 -0.178000
vt 1.960000 1.180000
vt -0.964000 1.180000
vn 0.692679 0.721213 0.000549
vn 0.304880 0.952361 0.000214
vn -0.304880 0.952361 -0.000214
vn -0.692679 0.721213 -0.000549
usemtl Material.012_zigel.jpg
s 1
f 29/23/18 30/24/18 32/25/19
f 32/25/19 31/26/20 29/23/18
f 31/26/20 32/25/19 34/24/21
f 34/24/21 33/23/21 31/26/20
v -0.378773 0.118227 -0.788174
v -0.378373 0.118227 -1.289871
v -0.547916 0.118227 -0.788309
v -0.547517 0.118227 -1.290006
v -0.717060 0.118227 -0.788444
v -0.716660 0.118227 -1.290141
v -0.378773 0.357608 -0.788174
v -0.378373 0.357608 -1.289871
v -0.547916 0.520062 -0.788309
v -0.547517 0.520062 -1.290006
v -0.717060 0.357608 -0.788444
v -0.716660 0.357608 -1.290141
v -0.361832 -0.050614 -0.761882
v -0.361390 -0.050614 -1.316137
v -0.547937 -0.050614 -0.762030
v -0.547496 -0.050614 -1.316285
v -0.734043 -0.050614 -0.762178
v -0.733602 -0.050614 -1.316434
vt 0.277000 1.310000
vt 0.277000 -0.309000
vt 0.565000 -0.309000
vt 0.565000 1.310000
vt 0.723000 0.004110
vt 0.723000 0.398000
vt 0.242000 0.398000
vt 0.435000 0.004110
vt 0.723000 0.792000
vt 0.435000 0.792000
vt 0.723000 -0.309000
vt 0.723000 1.310000
vt 0.435000 1.310000
vt 0.435000 -0.309000
vt 0.277000 0.792000
vt 0.277000 0.398000
vt 0.758000 0.398000
vt 0.565000 0.792000
vt 0.277000 0.004110
vt 0.565000 0.004110
vn 0.894070 0.000000 0.447920
vn 0.447920 0.000000 -0.894070
vn 0.894772 0.000000 -0.446486
vn 0.446486 0.000000 0.894772
vn 0.000793 0.000000 -0.999969
vn -0.894070 0.000000 -0.447920
vn -0.446486 0.000000 -0.894772
vn -0.447920 0.000000 0.894070
vn -0.894772 0.000000 0.446486
vn -0.000793 0.000000 0.999969
usemtl Material.011_yellowstn.png
s 1
f 41/27/22 42/28/23 48/29/24
f 47/30/25 41/27/22 48/29/24
f 42/31/23 44/32/26 50/33/26
f 50/33/26 48/34/24 42/31/23
f 44/32/26 46/35/27 52/36/28
f 52/36/28 50/33/26 44/32/26
f 46/37/27 45/38/29 51/39/30
f 51/39/30 52/40/28 46/37/27
f 45/41/29 43/42/31 49/43/31
f 49/43/31 51/44/30 45/41/29
f 43/42/31 41/45/22 47/46/25
f 47/46/25 49/43/31 43/42/31
v -0.378773 0.118227 -0.788174
v -0.378373 0.118227 -1.289871
v -0.547916 0.118227 -0.788309
v -0.547517 0.118227 -1.290006
v -0.717060 0.118227 -0.788444
v -0.716660 0.118227 -1.290141
v -0.378773 0.357608 -0.788174
v -0.378373 0.357608 -1.289871
v -0.547916 0.520062 -0.788309
v -0.547517 0.520062 -1.290006
v -0.717060 0.357608 -0.788444
v -0.716660 0.357608 -1.290141
v -0.361832 -0.050614 -0.761882
v -0.361390 -0.050614 -1.316137
v -0.547937 -0.050614 -0.762030
v -0.547496 -0.050614 -1.316285
v -0.734043 -0.050614 -0.762178
v -0.733602 -0.050614 -1.316434
vt 0.277000 0.004110
vt 0.277000 0.398000
vt 0.075200 0.398000
vt 0.075200 0.004110
vt 0.723000 0.398000
vt 0.723000 0.004110
vt 0.925000 0.004110
vt 0.925000 0.398000
vt 0.277000 -0.309000
vt 0.277000 1.310000
vt 0.075200 1.310000
vt 0.075200 -0.309000
vt 0.277000 0.792000
vt 0.075200 0.792000
vt 0.723000 1.310000
vt 0.723000 -0.309000
vt 0.925000 -0.309000
vt 0.925000 1.310000
vt 0.723000 0.792000
vt 0.925000 0.792000
vn 0.441542 0.181127 0.878750
vn -0.000763 0.153783 0.988098
vn 0.884152 0.157201 0.439894
vn 0.000763 0.153783 -0.988098
vn 0.884854 0.157201 -0.438490
vn 0.442946 0.181127 -0.878048
vn -0.884854 0.157201 0.438490
vn -0.442946 0.181127 0.878048
vn -0.441542 0.181127 -0.878750
vn -0.884152 0.157201 -0.439894
usemtl Material.010_stones.jpg
s 1
f 59/47/32 61/48/33 73/49/33
f 71/50/34 59/47/32 73/49/33
f 62/51/35 60/52/36 72/53/37
f 72/53/37 74/54/35 62/51/35
f 60/55/36 59/56/32 71/57/34
f 71/57/34 72/58/37 60/55/36
f 61/48/33 63/59/38 75/60/39
f 75/60/39 73/49/33 61/48/33
f 63/61/38 64/62/40 76/63/41
f 76/63/41 75/64/39 63/61/38
f 64/65/40 62/51/35 74/54/35
f 74/54/35 76/66/41 64/65/40
v -0.378773 0.118227 -0.788174
v -0.378373 0.118227 -1.289871
v -0.547916 0.118227 -0.788309
v -0.547517 0.118227 -1.290006
v -0.717060 0.118227 -0.788444
v -0.716660 0.118227 -1.290141
v -0.378773 0.357608 -0.788174
v -0.378373 0.357608 -1.289871
v -0.547916 0.520062 -0.788309
v -0.547517 0.520062 -1.290006
v -0.717060 0.357608 -0.788444
v -0.716660 0.357608 -1.290141
v -0.361832 -0.050614 -0.761882
v -0.361390 -0.050614 -1.316137
v -0.547937 -0.050614 -0.762030
v -0.547496 -0.050614 -1.316285
v -0.734043 -0.050614 -0.762178
v -0.733602 -0.050614 -1.316434
v -1.045279 0.387948 -0.963031
v -1.211984 0.387948 -0.874700
v -1.179480 0.387948 -0.688642
v -0.992614 0.387948 -0.662157
v -0.909687 0.387948 -0.831854
v -1.067809 0.387948 -0.804077
vt 0.484000 0.500000
vt 0.652000 0.500000
vt 0.536000 0.660000
vt 0.348000 0.599000
vt 0.348000 0.401000
vt 0.536000 0.340000
usemtl Material.008_yellowstn.png
s 1
f 100/67/9 95/68/9 96/69/9
f 100/67/9 96/69/9 97/70/9
f 100/67/9 97/70/9 98/71/9
f 100/67/9 98/71/9 99/72/9
f 99/72/9 95/68/9 100/67/9
v 0.049049 0.118227 -1.179777
v -0.369987 0.118227 -1.180444
v 0.048825 0.118227 -1.038824
v -0.370211 0.118227 -1.039491
v 0.048600 0.118227 -0.897871
v -0.370436 0.118227 -0.898538
v 0.049049 0.357608 -1.179777
v -0.369987 0.357608 -1.180444
v 0.048825 0.520062 -1.038824
v -0.370211 0.520062 -1.039491
v 0.048600 0.357608 -0.897871
v -0.370436 0.357608 -0.898538
v 0.070095 -0.050614 -1.193838
v -0.390988 -0.050614 -1.194573
v 0.069848 -0.050614 -1.038790
v 0.069601 -0.050614 -0.883742
v -0.391482 -0.050614 -0.884477
vt -0.964000 -0.178000
vt 1.960000 -0.178000
vt 1.960000 1.180000
vt -0.964000 1.180000
vn 0.001190 0.655324 -0.755303
vn 0.000549 0.933470 -0.358623
vn -0.000549 0.933470 0.358623
vn -0.001190 0.655324 0.755303
usemtl Material.007_zigel.jpg
s 1
f 107/73/42 108/74/42 110/75/43
f 110/75/43 109/76/44 107/73/42
f 109/76/44 110/75/43 112/74/45
f 112/74/45 111/73/45 109/76/44
v 0.049049 0.118227 -1.179777
v -0.369987 0.118227 -1.180444
v 0.048825 0.118227 -1.038824
v -0.370211 0.118227 -1.039491
v 0.048600 0.118227 -0.897871
v -0.370436 0.118227 -0.898538
v 0.049049 0.357608 -1.179777
v -0.369987 0.357608 -1.180444
v 0.048825 0.520062 -1.038824
v -0.370211 0.520062 -1.039491
v 0.048600 0.357608 -0.897871
v -0.370436 0.357608 -0.898538
v 0.070095 -0.050614 -1.193838
v -0.390988 -0.050614 -1.194573
v 0.069848 -0.050614 -1.038790
v 0.069601 -0.050614 -0.883742
v -0.391482 -0.050614 -0.884477
vt 0.277000 1.310000
vt 0.277000 -0.309000
vt 0.565000 -0.309000
vt 0.565000 1.310000
vt 0.723000 0.004110
vt 0.723000 0.398000
vt 0.242000 0.398000
vt 0.435000 0.004110
vt 0.435000 0.792000
vt 0.723000 -0.309000
vt 0.723000 1.310000
vt 0.435000 1.310000
vt 0.435000 -0.309000
vt 0.277000 0.792000
vt 0.277000 0.398000
vt 0.758000 0.398000
vt 0.565000 0.792000
vt 0.277000 0.004110
vt 0.565000 0.004110
vn 0.448622 0.000000 -0.893704
vn -0.893704 0.000000 -0.448622
vn -0.445784 0.000000 -0.895108
vn 0.895108 0.000000 -0.445784
vn -0.999969 0.000000 -0.001587
vn -0.708213 0.000000 0.705954
vn -0.001587 0.000000 0.999969
vn 0.893704 0.000000 0.448622
vn 0.445784 0.000000 0.895108
vn 0.999969 0.000000 0.001587
usemtl Material.006_yellowstn.png
s 1
f 118/77/46 119/78/47 125/79/48
f 124/80/49 118/77/46 125/79/48
f 119/81/47 121/82/50 127/83/50
f 127/83/50 125/84/48 119/81/47
f 129/85/51 127/83/50 121/82/50
f 123/86/52 122/87/53 128/88/54
f 128/88/54 129/89/51 123/86/52
f 122/90/53 120/91/55 126/92/55
f 126/92/55 128/93/54 122/90/53
f 120/91/55 118/94/46 124/95/49
f 124/95/49 126/92/55 120/91/55
v 0.049049 0.118227 -1.179777
v -0.369987 0.118227 -1.180444
v 0.048825 0.118227 -1.038824
v -0.370211 0.118227 -1.039491
v 0.048600 0.118227 -0.897871
v -0.370436 0.118227 -0.898538
v 0.049049 0.357608 -1.179777
v -0.369987 0.357608 -1.180444
v 0.048825 0.520062 -1.038824
v -0.370211 0.520062 -1.039491
v 0.048600 0.357608 -0.897871
v -0.370436 0.357608 -0.898538
v 0.070095 -0.050614 -1.193838
v -0.390988 -0.050614 -1.194573
v 0.069848 -0.050614 -1.038790
v 0.069601 -0.050614 -0.883742
v -0.391482 -0.050614 -0.884477
vt 0.277000 0.004110
vt 0.277000 0.398000
vt 0.075200 0.398000
vt 0.075200 0.004110
vt 0.277000 -0.309000
vt 0.277000 1.310000
vt 0.075200 1.310000
vt 0.075200 -0.309000
vt 0.277000 0.792000
vt 0.075200 0.792000
vt 0.723000 1.310000
vt 0.723000 -0.309000
vt 0.925000 -0.309000
vt 0.925000 1.310000
vn 0.884640 0.147099 -0.442427
vn 0.992309 0.123539 0.001556
vn 0.443373 0.129124 -0.886959
vn 0.001556 0.083193 -0.996521
vn 0.001556 0.083163 -0.996521
vn 0.440535 0.129124 0.888363
vn 0.883236 0.147099 0.445235
vn -0.001587 0.083193 0.996521
usemtl Material.005_stones.jpg
s 1
f 135/96/56 137/97/57 149/98/57
f 147/99/58 135/96/56 149/98/57
f 136/100/59 135/101/56 147/102/58
f 147/102/58 148/103/60 136/100/59
f 137/97/57 139/104/61 150/105/62
f 150/105/62 149/98/57 137/97/57
f 139/106/61 140/107/63 151/108/63
f 151/108/63 150/109/62 139/106/61
v 0.049049 0.118227 -1.179777
v -0.369987 0.118227 -1.180444
v 0.048825 0.118227 -1.038824
v -0.370211 0.118227 -1.039491
v 0.048600 0.118227 -0.897871
v -0.370436 0.118227 -0.898538
v 0.049049 0.357608 -1.179777
v -0.369987 0.357608 -1.180444
v 0.048825 0.520062 -1.038824
v -0.370211 0.520062 -1.039491
v 0.048600 0.357608 -0.897871
v -0.370436 0.357608 -0.898538
v 0.070095 -0.050614 -1.193838
v -0.390988 -0.050614 -1.194573
v 0.069848 -0.050614 -1.038790
v 0.069601 -0.050614 -0.883742
v -0.391482 -0.050614 -0.884477
v 0.262679 -0.051419 -0.809441
v 0.394534 -0.051419 -0.606470
v 0.628626 -0.051419 -0.669258
v 0.641118 -0.051419 -0.911184
v 0.414740 -0.051419 -0.997750
v 0.308010 0.457445 -0.807100
v 0.410841 0.457445 -0.648927
v 0.593263 0.457445 -0.697877
v 0.602996 0.457445 -0.886360
v 0.426586 0.457445 -0.953839
vt 0.500000 0.000500
vt 0.932000 0.996000
vt 0.500000 0.996000
vt 1.000000 0.000500
vt 0.382000 0.000500
vt 0.940000 0.996000
vt 0.405000 0.996000
vt 0.999000 0.000500
vt 0.191000 0.000500
vt 0.767000 0.996000
vt 0.233000 0.996000
vt 0.809000 0.000500
vt 0.000500 0.000500
vt 0.595000 0.996000
vt 0.060500 0.996000
vt 0.618000 0.000500
vt 0.067500 0.996000
vn -0.994690 0.088900 -0.051363
vn -0.565630 0.086459 0.820093
vn -0.994690 0.088839 -0.051363
vn -0.127781 0.086520 0.988006
vn 0.605213 0.086520 0.791314
vn 0.900296 0.086550 0.426527
vn 0.939451 0.086550 -0.331492
vn 0.683523 0.086520 -0.724754
vn -0.258950 0.088961 -0.961760
vn -0.259041 0.088992 -0.961730
usemtl Material.003_yellowstn.png
s 1
f 169/110/64 175/111/65 174/112/66
f 169/110/64 170/113/67 175/111/65
f 170/114/67 176/115/68 175/116/65
f 170/114/67 171/117/69 176/115/68
f 171/118/69 177/119/70 176/120/68
f 171/118/69 172/121/71 177/119/70
f 172/122/71 178/123/72 177/124/70
f 172/122/71 173/125/73 178/123/72
f 169/110/64 174/112/66 178/126/72
f 169/110/64 178/126/72 173/122/73
v 0.628357 -0.048528 -0.782814
v 0.164884 -0.048528 -1.585529
v -0.762061 -0.048528 -1.585529
v -1.225533 -0.048528 -0.782814
v -0.558993 -0.048528 -0.422070
v -0.038184 -0.048528 -0.422070
v 0.585354 0.357608 -0.782814
v 0.143383 0.357608 -1.547305
v -0.740560 0.357608 -1.547305
v -1.182531 0.357608 -0.782814
v -0.547048 0.357608 -0.460295
v -0.050129 0.357608 -0.460295
vt -0.416000 -0.001160
vt 0.835000 1.000000
vt -0.416000 1.000000
vt 0.835000 -0.001160
vt 1.750000 1.000000
vt 1.750000 -0.001160
vt 0.165000 -0.001160
vt 1.420000 1.000000
vt 0.165000 1.000000
vt 1.420000 -0.001160
vn 0.992950 0.105655 -0.053224
vn 0.650899 0.104740 -0.751854
vn 0.810999 0.108127 0.574908
vn 0.325510 0.105655 -0.939604
vn -0.325358 0.105655 -0.939665
vn -0.650899 0.104740 -0.751854
vn -0.993225 0.105716 -0.048158
vn -0.811029 0.106784 0.575152
vn -0.316782 0.081393 0.944975
vn -0.162267 0.097171 0.981933
vn 0.153844 0.097049 0.983306
vn 0.316782 0.082400 0.944884
usemtl Material.002_yellowstn.png
s 1
f 179/127/74 186/128/75 185/129/76
f 179/127/74 180/130/77 186/128/75
f 180/130/77 187/131/78 186/128/75
f 180/130/77 181/132/79 187/131/78
f 181/133/79 188/134/80 187/135/78
f 181/133/79 182/136/81 188/134/80
f 182/127/81 189/128/82 188/129/80
f 182/127/81 183/130/83 189/128/82
f 183/130/83 190/131/84 189/128/82
f 183/130/83 184/132/85 190/131/84
f 184/133/85 185/134/76 190/135/84
f 184/133/85 179/136/74 185/134/76
v -1.036521 -0.051419 -1.006301
v -1.250431 -0.051419 -0.893051
v -1.208747 -0.051419 -0.654297
v -0.968896 -0.051419 -0.620302
v -0.862507 -0.051419 -0.838069
v -1.042891 0.457445 -0.961359
v -1.209596 0.457445 -0.873028
v -1.177091 0.457445 -0.686970
v -0.990225 0.457445 -0.660484
v -0.907298 0.457445 -0.830182
vt 0.500000 0.000500
vt 0.932000 0.996000
vt 0.500000 0.996000
vt 1.000000 0.000500
vt 0.382000 0.000500
vt 0.940000 0.996000
vt 0.405000 0.996000
vt 0.999000 0.000500
vt 0.191000 0.000500
vt 0.767000 0.996000
vt 0.233000 0.996000
vt 0.809000 0.000500
vt 0.000500 0.000500
vt 0.595000 0.996000
vt 0.060500 0.996000
vt 0.618000 0.000500
vt 0.067500 0.996000
vn 0.139775 0.088900 -0.986175
vn -0.766442 0.086459 -0.636433
vn 0.139775 0.088839 -0.986175
vn -0.972686 0.086520 -0.215308
vn -0.842067 0.086520 0.532334
vn -0.505020 0.086550 0.858730
vn 0.246467 0.086550 0.965270
vn 0.660970 0.086520 0.745354
vn 0.981017 0.088961 -0.172246
vn 0.980987 0.088992 -0.172338
usemtl Material.001_yellowstn.png
s 1
f 191/137/86 197/138/87 196/139/88
f 191/137/86 192/140/89 197/138/87
f 192/141/89 198/142/90 197/143/87
f 192/141/89 193/144/91 198/142/90
f 193/145/91 199/146/92 198/147/90
f 193/145/91 194/148/93 199/146/92
f 194/149/93 200/150/94 199/151/92
f 194/149/93 195/152/95 200/150/94
f 191/137/86 196/139/88 200/153/94
f 191/137/86 200/153/94 195/149/95
v -0.296152 -0.024638 -0.924962
v -0.296152 -0.072418 -0.924962
v -0.343932 -0.072418 -0.924962
v -0.343932 -0.024638 -0.924962
v -0.296152 -0.024638 -0.877181
v -0.296152 -0.072418 -0.877181
v -0.343932 -0.072418 -0.877181
v -0.343932 -0.024638 -0.877181
vn 0.000000 0.000000 -1.000000
vn 0.000000 -0.000000 1.000000
vn 1.000000 -0.000000 0.000000
vn -0.000000 -1.000000 -0.000000
vn -1.000000 0.000000 -0.000000
usemtl Material
s off
f 201//96 202//96 203//96 204//96
f 205//97 208//97 207//97 206//97
f 201//98 205//98 206//98 202//98
f 202//99 206//99 207//99 203//99
f 203//100 207//100 208//100 204//100
f 205//9 201//9 204//9 208//9
